<?xml version="1.0" standalone="no"?>
<!DOCTYPE svg PUBLIC "-//W3C//DTD SVG 20010904//EN"
 "http://www.w3.org/TR/2001/REC-SVG-20010904/DTD/svg10.dtd">
<svg version="1.0" xmlns="http://www.w3.org/2000/svg"
 width="386.000000pt" height="386.000000pt" viewBox="0 0 386.000000 386.000000"
 preserveAspectRatio="xMidYMid meet">
<metadata>
Created by potrace 1.16, written by Peter Selinger 2001-2019
</metadata>
<g transform="translate(0.000000,386.000000) scale(0.150781,-0.150781)"
fill="#000000" stroke="none">
<path d="M302 2340 c-84 -40 -165 -121 -203 -205 l-29 -65 0 -790 0 -790 29
-65 c38 -84 119 -165 203 -205 35 -17 68 -30 74 -30 6 0 37 -16 69 -35 68 -41
116 -50 250 -49 91 0 107 4 180 34 l80 35 255 6 c140 4 410 7 600 8 l345 1 63
30 c84 40 165 121 203 205 l29 65 0 790 0 790 -29 65 c-38 84 -119 165 -203
205 l-63 30 -895 0 -895 0 -63 -30z m1833 -161 c51 -27 81 -54 114 -104 l26
-40 3 -369 3 -369 -73 64 c-40 35 -152 134 -248 219 -222 198 -284 247 -450
357 -325 217 -451 264 -625 234 -118 -21 -175 -62 -195 -141 -6 -25 -20 -71
-32 -102 l-20 -58 -77 0 c-88 0 -133 -17 -199 -75 -75 -65 -87 -100 -87 -250
0 -71 -4 -136 -8 -142 -25 -39 -28 1 -25 310 l3 322 26 40 c33 50 63 77 114
104 39 21 45 21 875 21 830 0 836 0 875 -21z m-926 -165 c149 -77 285 -166
425 -277 247 -197 601 -543 638 -626 14 -31 20 -64 19 -118 -1 -124 -41 -192
-225 -380 -88 -91 -128 -125 -155 -133 -40 -11 -302 -12 -341 -1 -18 5 -26 16
-30 36 -4 25 -13 33 -55 47 -89 30 -346 19 -424 -19 -28 -14 -40 -29 -54 -68
-20 -55 -35 -69 -54 -53 -34 28 9 140 76 201 91 82 254 166 446 231 125 43
144 44 183 11 40 -33 49 -32 57 12 12 63 32 90 128 169 101 83 127 110 127
129 0 20 -104 155 -214 279 -53 60 -96 116 -96 125 -1 55 -93 177 -160 210
-62 32 -120 36 -120 11 0 -5 34 -36 75 -70 73 -60 123 -129 109 -151 -7 -12
-55 -6 -128 18 -60 19 -98 7 -89 -29 9 -35 33 -58 62 -58 14 0 49 -13 76 -28
38 -20 55 -38 70 -70 16 -35 24 -42 40 -36 60 20 92 16 126 -14 37 -33 79
-107 79 -140 0 -65 -118 -67 -262 -4 -26 12 -63 24 -83 28 -48 9 -120 -13
-148 -44 -67 -76 -77 -82 -132 -82 -59 0 -122 19 -166 51 -41 29 -70 91 -139
296 -33 97 -65 182 -71 189 -16 19 -49 18 -49 -2 0 -16 17 -74 85 -299 46
-148 124 -307 159 -323 39 -17 62 -72 50 -119 -9 -37 -10 -38 -59 -39 -27 -1
-56 -2 -64 -3 -7 -1 -43 -33 -80 -72 -52 -55 -73 -71 -95 -71 -43 0 -90 53
-121 136 -34 92 -135 327 -148 344 -5 6 -20 12 -33 12 -44 0 -31 -53 56 -229
44 -89 94 -202 111 -251 44 -125 44 -125 126 -125 37 0 74 -4 81 -8 6 -5 12
-24 12 -44 0 -29 -8 -44 -40 -74 -83 -79 -191 -77 -253 4 -15 20 -59 101 -97
181 -72 148 -89 172 -115 162 -25 -9 -17 -46 40 -174 86 -196 177 -316 260
-345 55 -19 65 -40 36 -71 -56 -59 -133 -56 -208 9 -56 47 -92 108 -162 266
-32 74 -75 167 -95 207 -20 39 -36 83 -36 96 0 14 14 41 30 60 50 57 54 81 30
185 l-22 91 25 43 c14 23 56 67 94 98 l68 55 -2 55 c-1 30 -4 82 -8 115 -9 77
4 118 51 167 41 41 78 54 181 64 56 4 77 11 91 27 21 24 62 117 62 141 0 40
32 83 82 110 64 35 95 43 177 44 60 1 71 -3 190 -65z m211 -1494 c0 -18 -41
-27 -165 -39 -129 -12 -165 -19 -165 -31 0 -11 49 -18 199 -30 68 -5 129 -14
135 -20 13 -13 12 -88 -1 -101 -15 -15 -188 -26 -271 -19 -61 6 -78 12 -100
34 -22 22 -27 35 -26 76 0 27 6 55 12 63 18 22 117 46 232 57 57 5 105 12 108
15 10 9 42 5 42 -5z"/>
</g>
</svg>
